<?xml version="1.0" encoding="utf-8"?>
<!-- Generator: Adobe Illustrator 15.0.0, SVG Export Plug-In . SVG Version: 6.00 Build 0)  -->
<!DOCTYPE svg PUBLIC "-//W3C//DTD SVG 1.1//EN" "http://www.w3.org/Graphics/SVG/1.1/DTD/svg11.dtd">
<svg version="1.1" id="Layer_1" xmlns="http://www.w3.org/2000/svg" xmlns:xlink="http://www.w3.org/1999/xlink" x="0px" y="0px"
	 width="25px" height="25px" viewBox="180.715 180.715 25 25" enable-background="new 180.715 180.715 25 25" xml:space="preserve">
<title></title>
<g id="图层_1">
	<circle fill="#FFCC33" cx="193.215" cy="193.215" r="6.716"/>
	<path fill="#FFCC33" d="M199.336,193.215c-0.021,2.529-1.605,4.885-4.008,5.749c-2.453,0.878-5.194,0.128-6.858-1.877
		c-1.625-1.967-1.813-4.842-0.506-7.021c1.307-2.18,3.94-3.37,6.446-2.857C197.26,187.803,199.31,190.303,199.336,193.215
		c0.006,0.764,1.194,0.766,1.188,0c-0.026-3.073-1.949-5.81-4.83-6.876c-2.857-1.053-6.218-0.121-8.13,2.244
		c-1.912,2.364-2.201,5.753-0.626,8.38c1.584,2.645,4.718,4.009,7.735,3.414c3.385-0.669,5.827-3.745,5.851-7.163
		C200.53,192.45,199.342,192.449,199.336,193.215z"/>
	<path fill="#FFCC33" d="M193.808,183.822v-2.534c0-0.764-1.188-0.766-1.188,0v2.534
		C192.621,184.586,193.808,184.588,193.808,183.822z"/>
	<line fill="none" x1="188.518" y1="185.08" x2="187.253" y2="182.888"/>
	<path fill="#FFCC33" d="M189.031,184.78l-1.267-2.192c-0.383-0.662-1.409-0.064-1.029,0.6l1.267,2.192
		C188.385,186.042,189.411,185.444,189.031,184.78L189.031,184.78z"/>
	<line fill="none" x1="185.081" y1="188.518" x2="182.887" y2="187.253"/>
	<path fill="#FFCC33" d="M185.38,188.006l-2.192-1.268c-0.664-0.383-1.263,0.644-0.6,1.029l2.192,1.268
		C185.444,189.418,186.043,188.392,185.38,188.006z"/>
	<line fill="none" x1="183.822" y1="193.215" x2="181.291" y2="193.215"/>
	<path fill="#FFCC33" d="M183.822,192.62h-2.533c-0.765,0-0.767,1.189,0,1.189h2.533C184.587,193.809,184.588,192.62,183.822,192.62
		z"/>
	<line fill="none" x1="185.081" y1="197.912" x2="182.887" y2="199.177"/>
	<path fill="#FFCC33" d="M184.78,197.398l-2.192,1.268c-0.662,0.382-0.064,1.408,0.6,1.029l2.192-1.268
		C186.042,198.045,185.444,197.019,184.78,197.398L184.78,197.398z"/>
	<line fill="none" x1="188.518" y1="201.349" x2="187.253" y2="203.542"/>
	<path fill="#FFCC33" d="M188.006,201.049l-1.267,2.193c-0.384,0.663,0.643,1.262,1.029,0.599l1.267-2.192
		C189.419,200.986,188.392,200.387,188.006,201.049z"/>
	<line fill="none" x1="193.215" y1="202.607" x2="193.215" y2="205.139"/>
	<path fill="#FFCC33" d="M192.621,202.607v2.534c0,0.765,1.188,0.766,1.188,0v-2.534
		C193.808,201.843,192.621,201.841,192.621,202.607z"/>
	<line fill="none" x1="197.911" y1="201.349" x2="199.177" y2="203.542"/>
	<path fill="#FFCC33" d="M197.398,201.649l1.267,2.192c0.383,0.662,1.409,0.064,1.029-0.599l-1.267-2.193
		C198.045,200.387,197.018,200.986,197.398,201.649z"/>
	<line fill="none" x1="201.348" y1="197.912" x2="203.542" y2="199.177"/>
	<path fill="#FFCC33" d="M201.05,198.423l2.192,1.268c0.664,0.383,1.263-0.643,0.6-1.029l-2.192-1.268
		C200.985,197.011,200.386,198.038,201.05,198.423z"/>
	<line fill="none" x1="202.607" y1="193.215" x2="205.138" y2="193.215"/>
	<path fill="#FFCC33" d="M202.607,193.809h2.533c0.765,0,0.767-1.189,0-1.189h-2.533
		C201.843,192.62,201.842,193.809,202.607,193.809z"/>
	<line fill="none" x1="201.348" y1="188.518" x2="203.542" y2="187.253"/>
	<path fill="#FFCC33" d="M201.649,189.031l2.192-1.268c0.662-0.382,0.064-1.408-0.6-1.029l-2.192,1.268
		C200.387,188.384,200.985,189.41,201.649,189.031z"/>
	<line fill="none" x1="197.911" y1="185.08" x2="199.177" y2="182.888"/>
	<path fill="#FFCC33" d="M198.424,185.38l1.267-2.193c0.384-0.663-0.643-1.262-1.029-0.599l-1.267,2.192
		C197.01,185.444,198.037,186.043,198.424,185.38z"/>
</g>
</svg>
